<svg width="94" height="94" viewBox="0 0 94 94" fill="none" xmlns="http://www.w3.org/2000/svg">
<path fill-rule="evenodd" clip-rule="evenodd" d="M68.3776 8.37003L62.9193 15.7254C52.2187 30.1453 33.3108 35.8109 16.4454 29.6546C30.4273 40.9172 35.3408 60.0345 28.5192 76.6447L25.0396 85.1174L30.4979 77.762C41.1985 63.3421 60.1064 57.6765 76.9718 63.8328C62.9899 52.5702 58.0764 33.453 64.898 16.8427L68.3776 8.37003ZM61.7766 14.8775L70.6266 2.95137L71.8561 3.64566L66.2143 17.3833C59.628 33.4205 64.379 51.8796 77.8891 62.7445L81.2296 65.4309L80.5392 66.6535L76.5136 65.1804C60.2325 59.2227 41.972 64.6876 31.6406 78.61L22.7906 90.5361L21.5611 89.8418L27.2029 76.1041C33.7892 60.0669 29.0383 41.6078 15.5281 30.743L12.1876 28.0565L12.878 26.8339L16.9037 28.307C33.1848 34.2648 51.4452 28.7998 61.7766 14.8775Z" fill="#4C9DB0"/>
<path fill-rule="evenodd" clip-rule="evenodd" d="M16.0167 61.9374C24.7892 61.5368 36.578 59.5323 49.2831 55.9975C61.9883 52.4628 73.1184 48.0909 80.8373 43.9034C84.7071 41.804 87.6488 39.7887 89.5028 37.9954C90.4305 37.0982 91.0307 36.3089 91.356 35.6465C91.6762 34.9946 91.6906 34.5541 91.6066 34.2525C91.5227 33.9508 91.2829 33.581 90.6721 33.1882C90.0514 32.789 89.1298 32.4231 87.872 32.1338C85.3582 31.5558 81.7984 31.3492 77.4005 31.5501C68.628 31.9507 56.8392 33.9552 44.1341 37.4899C31.4289 41.0247 20.2988 45.3965 12.5799 49.5841C8.7101 51.6834 5.76842 53.6988 3.91435 55.492C2.98666 56.3893 2.38646 57.1786 2.06115 57.8409C1.74099 58.4928 1.72661 58.9333 1.81053 59.235C1.89445 59.5366 2.13427 59.9064 2.7451 60.2993C3.36574 60.6985 4.28734 61.0644 5.54513 61.3536C8.05893 61.9317 11.6188 62.1382 16.0167 61.9374ZM0.439594 59.6164C2.07212 65.4843 24.1109 64.4778 49.6645 57.3685C75.2182 50.2591 94.6101 39.7389 92.9776 33.871C91.3451 28.0032 69.3063 29.0096 43.7526 36.119C18.199 43.2284 -1.19293 53.7485 0.439594 59.6164Z" fill="#4C9DB0"/>
<path fill-rule="evenodd" clip-rule="evenodd" d="M31.5149 16.0519C31.9155 24.8244 33.92 36.6131 37.4548 49.3183C40.9895 62.0235 45.3614 73.1536 49.5489 80.8725C51.6483 84.7422 53.6636 87.6839 55.4569 89.538C56.3542 90.4657 57.1434 91.0659 57.8058 91.3912C58.4577 91.7114 58.8982 91.7257 59.1998 91.6418C59.5015 91.5579 59.8713 91.3181 60.2642 90.7073C60.6633 90.0866 61.0292 89.165 61.3185 87.9072C61.8965 85.3934 62.1031 81.8336 61.9022 77.4356C61.5016 68.6632 59.4971 56.8744 55.9624 44.1692C52.4276 31.4641 48.0558 20.3339 43.8682 12.615C41.7689 8.74528 39.7535 5.80359 37.9603 3.94953C37.063 3.02184 36.2737 2.42164 35.6113 2.09633C34.9595 1.77616 34.5189 1.76178 34.2173 1.8457C33.9157 1.92963 33.5459 2.16945 33.153 2.78028C32.7538 3.40091 32.3879 4.32251 32.0987 5.58031C31.5206 8.09411 31.3141 11.654 31.5149 16.0519ZM33.8359 0.474772C27.968 2.1073 28.9745 24.1461 36.0838 49.6997C43.1932 75.2534 53.7134 94.6453 59.5813 93.0128C65.4491 91.3802 64.4427 69.3415 57.3333 43.7878C50.2239 18.2342 39.7038 -1.15775 33.8359 0.474772Z" fill="#4C9DB0"/>
</svg>
