<svg width="128" height="128" viewBox="0 0 128 128" fill="none" xmlns="http://www.w3.org/2000/svg">
<path fill-rule="evenodd" clip-rule="evenodd" d="M37.3106 8.14319L41.3704 20.3596C49.3294 44.3092 40.5917 70.6394 19.8981 85.0795C44.141 78.078 70.1052 87.8501 83.7149 109.103L90.657 119.944L86.5972 107.728C78.6382 83.7785 87.376 57.4483 108.07 43.0081C83.8266 50.0096 57.8625 40.2376 44.2528 18.9843L37.3106 8.14319ZM39.4725 20.9904L32.8899 1.18261L34.681 0.327976L45.937 17.9057C59.0772 38.4258 84.1528 47.8539 107.557 41.0743L113.344 39.398L114.194 41.179L109.251 44.6229C89.2568 58.5509 80.8107 83.974 88.4952 107.097L95.0778 126.905L93.2867 127.76L82.0306 110.182C68.8904 89.6619 43.8149 80.2337 20.4103 87.0133L14.6233 88.6897L13.7735 86.9086L18.7171 83.4648C38.7108 69.5368 47.1569 44.1136 39.4725 20.9904Z" fill="#4C9DB0"/>
<path fill-rule="evenodd" clip-rule="evenodd" d="M56.7017 111.623C63.3195 101.205 70.5256 86.0212 76.7101 68.5484C82.8947 51.0756 86.8451 34.7397 88.2549 22.4781C88.9617 16.331 89.0163 11.3196 88.4488 7.73896C88.1648 5.94737 87.7408 4.61978 87.2411 3.71096C86.7494 2.81651 86.254 2.44448 85.8392 2.29765C85.4243 2.15081 84.8053 2.12839 83.8603 2.51429C82.9001 2.90639 81.7354 3.67165 80.3876 4.88567C77.6939 7.31197 74.5837 11.2418 71.2659 16.4648C64.6482 26.883 57.4421 42.0665 51.2575 59.5393C45.0729 77.0121 41.1226 93.348 39.7127 105.61C39.0059 111.757 38.9514 116.768 39.5189 120.349C39.8028 122.14 40.2268 123.468 40.7265 124.377C41.2183 125.271 41.7136 125.643 42.1285 125.79C42.5433 125.937 43.1624 125.959 44.1074 125.573C45.0675 125.181 46.2323 124.416 47.5801 123.202C50.2737 120.776 53.384 116.846 56.7017 111.623ZM41.4611 127.675C49.5309 130.532 66.1566 104.358 78.5955 69.2157C91.0345 34.073 94.5763 3.26862 86.5065 0.412272C78.4367 -2.44408 61.8111 23.7292 49.3721 58.872C36.9332 94.0147 33.3913 124.819 41.4611 127.675Z" fill="#4C9DB0"/>
<path fill-rule="evenodd" clip-rule="evenodd" d="M16.4048 56.7618C26.823 63.3796 42.0065 70.5856 59.4793 76.7702C76.9521 82.9548 93.288 86.9051 105.55 88.315C111.697 89.0218 116.708 89.0764 120.289 88.5088C122.08 88.2249 123.408 87.8009 124.317 87.3012C125.211 86.8094 125.583 86.3141 125.73 85.8993C125.877 85.4844 125.899 84.8653 125.513 83.9204C125.121 82.9602 124.356 81.7955 123.142 80.4477C120.716 77.754 116.786 74.6438 111.563 71.326C101.145 64.7082 85.9612 57.5022 68.4884 51.3176C51.0156 45.133 34.6797 41.1827 22.4182 39.7728C16.271 39.066 11.2596 39.0115 7.67896 39.579C5.88738 39.8629 4.55978 40.2869 3.65096 40.7866C2.75651 41.2784 2.38449 41.7737 2.23766 42.1885C2.09082 42.6034 2.06839 43.2225 2.45429 44.1674C2.84639 45.1276 3.61165 46.2923 4.82567 47.6401C7.25197 50.3338 11.1818 53.444 16.4048 56.7618ZM0.352275 41.5212C-2.50407 49.591 23.6692 66.2167 58.812 78.6556C93.9547 91.0945 124.759 94.6364 127.615 86.5666C130.472 78.4968 104.298 61.8711 69.1557 49.4322C34.013 36.9933 3.20863 33.4514 0.352275 41.5212Z" fill="#4C9DB0"/>
</svg>
