<svg width="34" height="34" viewBox="0 0 34 34" fill="none" xmlns="http://www.w3.org/2000/svg">
<path fill-rule="evenodd" clip-rule="evenodd" d="M17 1.94628L16.3438 5.93C15.4635 11.2746 11.2746 15.4635 5.93 16.3438L1.94628 17L5.93 17.6562C11.2746 18.5365 15.4635 22.7254 16.3438 28.07L17 32.0537L17.6562 28.07C18.5365 22.7254 22.7254 18.5365 28.07 17.6562L32.0537 17L28.07 16.3438C22.7254 15.4635 18.5365 11.2746 17.6562 5.93L17 1.94628ZM15.7357 5.82983L16.6959 0L17.3041 2.29612e-08L18.2643 5.82983C19.1017 10.9137 23.0863 14.8983 28.1702 15.7357L34 16.6959V17.3041L28.1702 18.2643C23.0863 19.1017 19.1017 23.0863 18.2643 28.1702L17.3041 34H16.6959L15.7357 28.1702C14.8983 23.0863 10.9137 19.1017 5.82983 18.2643L0 17.3041L2.29612e-08 16.6959L5.82983 15.7357C10.9137 14.8983 14.8983 10.9137 15.7357 5.82983Z" fill="#4C9DB0"/>
</svg>
